    <?xml version="1.0" standalone="no"?>
<!DOCTYPE svg PUBLIC "-//W3C//DTD SVG 20010904//EN"
 "http://www.w3.org/TR/2001/REC-SVG-20010904/DTD/svg10.dtd">
<svg version="1.0" xmlns="http://www.w3.org/2000/svg"
 width="200.000000pt" height="200.000000pt" viewBox="0 0 200.000000 200.000000"
 preserveAspectRatio="xMidYMid meet">

<g transform="translate(0.000000,200.000000) scale(0.100000,-0.100000)"
fill="#000000" stroke="none">
<path d="M924 1690 c-108 -23 -209 -103 -260 -206 -26 -53 -29 -69 -29 -159 0
-93 2 -105 32 -166 39 -79 102 -140 181 -177 49 -23 70 -27 152 -27 82 0 103
4 152 27 79 37 142 98 181 177 30 61 32 73 32 166 0 90 -3 106 -29 159 -75
152 -252 240 -412 206z m219 -75 c145 -68 217 -246 164 -402 -23 -66 -94 -146
-161 -181 -45 -24 -62 -27 -146 -27 -84 0 -101 3 -146 27 -28 15 -72 50 -97
78 -162 180 -71 470 167 531 56 15 160 2 219 -26z"/>
<path d="M790 1345 l0 -155 210 0 210 0 0 155 0 155 -210 0 -210 0 0 -155z
m370 0 l0 -105 -160 0 -160 0 0 105 0 105 160 0 160 0 0 -105z"/>
<path d="M1020 1365 l-44 -45 -23 22 c-18 17 -26 19 -35 10 -10 -10 -5 -20 23
-47 l34 -35 59 59 c32 33 55 64 52 70 -11 18 -19 14 -66 -34z"/>
<path d="M900 1130 c0 -19 7 -20 100 -20 93 0 100 1 100 20 0 19 -7 20 -100
20 -93 0 -100 -1 -100 -20z"/>
<path d="M172 723 l3 -118 90 0 90 0 3 63 3 62 -36 0 c-34 0 -35 -1 -35 -36 0
-31 -3 -35 -22 -32 -22 3 -23 8 -26 91 l-3 87 -35 0 -35 0 3 -117z"/>
<path d="M397 834 c-4 -4 -7 -18 -7 -31 0 -18 5 -23 25 -23 24 0 25 -3 25 -54
0 -49 -2 -55 -22 -58 -18 -2 -23 -10 -23 -33 l0 -30 80 0 80 0 0 30 c0 23 -5
31 -22 33 -21 3 -23 9 -23 57 0 48 2 54 23 57 16 2 22 10 22 28 0 24 -2 25
-75 28 -42 1 -79 0 -83 -4z"/>
<path d="M610 820 c-23 -23 -27 -91 -7 -109 8 -6 30 -14 51 -18 52 -11 45 -27
-14 -31 -49 -3 -51 -4 -48 -30 3 -27 4 -27 75 -26 92 0 105 11 101 78 -3 54
-5 55 -81 71 -41 8 -22 25 29 25 42 0 44 1 44 30 l0 30 -65 0 c-52 0 -69 -4
-85 -20z"/>
<path d="M797 833 c-4 -3 -7 -17 -7 -30 0 -19 5 -23 30 -23 l29 0 3 -87 3 -88
35 0 35 0 3 88 3 87 29 0 c27 0 30 3 30 30 l0 30 -93 0 c-52 0 -97 -3 -100 -7z"/>
<path d="M1022 723 l3 -118 90 0 90 0 3 63 3 62 -35 0 c-32 0 -35 -3 -38 -32
-2 -25 -8 -33 -23 -33 -18 0 -20 8 -23 88 l-3 87 -35 0 -35 0 3 -117z"/>
<path d="M1247 833 c-4 -3 -7 -17 -7 -30 0 -18 5 -23 25 -23 24 0 25 -3 25
-54 0 -49 -2 -55 -22 -58 -18 -2 -23 -10 -23 -33 l0 -30 75 0 75 0 3 33 c3 27
0 32 -17 32 -19 0 -21 6 -21 55 0 48 2 55 20 55 16 0 20 7 20 30 l0 30 -73 0
c-41 0 -77 -3 -80 -7z"/>
<path d="M1462 824 c-17 -12 -22 -25 -22 -58 0 -50 11 -62 64 -73 52 -11 45
-27 -14 -31 -49 -3 -51 -4 -48 -30 3 -27 4 -27 75 -26 92 0 105 11 101 78 -3
54 -5 55 -81 71 -41 8 -22 25 29 25 42 0 44 1 44 30 l0 30 -63 0 c-40 0 -70
-5 -85 -16z"/>
<path d="M1647 834 c-4 -4 -7 -18 -7 -31 0 -19 5 -23 30 -23 l29 0 3 -87 3
-88 35 0 35 0 3 88 3 87 30 0 c27 0 30 3 27 28 -3 27 -3 27 -93 30 -50 1 -94
0 -98 -4z"/>
</g>
</svg>
